# Tiled2Unity generated file. Do not modify by hand.
# Wavefront file for 'TestMap_mesh_0001.obj'

# Vertices (Count = 384)
v -8.96 -10.24 0
v -9.599999 -10.24 0
v -9.599999 -9.599999 0
v -8.96 -9.599999 0
v -9.599999 -10.24 0
v -10.24 -10.24 0
v -10.24 -9.599999 0
v -9.599999 -9.599999 0
v -10.24 -10.24 0
v -10.88 -10.24 0
v -10.88 -9.599999 0
v -10.24 -9.599999 0
v -10.88 -10.24 0
v -11.52 -10.24 0
v -11.52 -9.599999 0
v -10.88 -9.599999 0
v -11.52 -10.24 0
v -12.16 -10.24 0
v -12.16 -9.599999 0
v -11.52 -9.599999 0
v -8.96 -10.88 0
v -9.599999 -10.88 0
v -9.599999 -10.24 0
v -8.96 -10.24 0
v -9.599999 -10.88 0
v -10.24 -10.88 0
v -10.24 -10.24 0
v -9.599999 -10.24 0
v -10.24 -10.88 0
v -10.88 -10.88 0
v -10.88 -10.24 0
v -10.24 -10.24 0
v -10.88 -10.88 0
v -11.52 -10.88 0
v -11.52 -10.24 0
v -10.88 -10.24 0
v -11.52 -10.88 0
v -12.16 -10.88 0
v -12.16 -10.24 0
v -11.52 -10.24 0
v -8.96 -11.52 0
v -9.599999 -11.52 0
v -9.599999 -10.88 0
v -8.96 -10.88 0
v -9.599999 -11.52 0
v -10.24 -11.52 0
v -10.24 -10.88 0
v -9.599999 -10.88 0
v -10.24 -11.52 0
v -10.88 -11.52 0
v -10.88 -10.88 0
v -10.24 -10.88 0
v -10.88 -11.52 0
v -11.52 -11.52 0
v -11.52 -10.88 0
v -10.88 -10.88 0
v -11.52 -11.52 0
v -12.16 -11.52 0
v -12.16 -10.88 0
v -11.52 -10.88 0
v -5.12 -12.16 0
v -5.76 -12.16 0
v -5.76 -11.52 0
v -5.12 -11.52 0
v -8.96 -12.16 0
v -9.599999 -12.16 0
v -9.599999 -11.52 0
v -8.96 -11.52 0
v -9.599999 -12.16 0
v -10.24 -12.16 0
v -10.24 -11.52 0
v -9.599999 -11.52 0
v -10.24 -12.16 0
v -10.88 -12.16 0
v -10.88 -11.52 0
v -10.24 -11.52 0
v -10.88 -12.16 0
v -11.52 -12.16 0
v -11.52 -11.52 0
v -10.88 -11.52 0
v -11.52 -12.16 0
v -12.16 -12.16 0
v -12.16 -11.52 0
v -11.52 -11.52 0
v 0 -12.8 0
v -0.64 -12.8 0
v -0.64 -12.16 0
v 0 -12.16 0
v -0.64 -12.8 0
v -1.28 -12.8 0
v -1.28 -12.16 0
v -0.64 -12.16 0
v -1.28 -12.8 0
v -1.92 -12.8 0
v -1.92 -12.16 0
v -1.28 -12.16 0
v -1.92 -12.8 0
v -2.56 -12.8 0
v -2.56 -12.16 0
v -1.92 -12.16 0
v -2.56 -12.8 0
v -3.2 -12.8 0
v -3.2 -12.16 0
v -2.56 -12.16 0
v -3.2 -12.8 0
v -3.84 -12.8 0
v -3.84 -12.16 0
v -3.2 -12.16 0
v -3.84 -12.8 0
v -4.48 -12.8 0
v -4.48 -12.16 0
v -3.84 -12.16 0
v -4.48 -12.8 0
v -5.12 -12.8 0
v -5.12 -12.16 0
v -4.48 -12.16 0
v -5.12 -12.8 0
v -5.76 -12.8 0
v -5.76 -12.16 0
v -5.12 -12.16 0
v -5.76 -12.8 0
v -6.4 -12.8 0
v -6.4 -12.16 0
v -5.76 -12.16 0
v -8.96 -12.8 0
v -9.599999 -12.8 0
v -9.599999 -12.16 0
v -8.96 -12.16 0
v -9.599999 -12.8 0
v -10.24 -12.8 0
v -10.24 -12.16 0
v -9.599999 -12.16 0
v -10.24 -12.8 0
v -10.88 -12.8 0
v -10.88 -12.16 0
v -10.24 -12.16 0
v -10.88 -12.8 0
v -11.52 -12.8 0
v -11.52 -12.16 0
v -10.88 -12.16 0
v -11.52 -12.8 0
v -12.16 -12.8 0
v -12.16 -12.16 0
v -11.52 -12.16 0
v 0 -13.44 0
v -0.64 -13.44 0
v -0.64 -12.8 0
v 0 -12.8 0
v -0.64 -13.44 0
v -1.28 -13.44 0
v -1.28 -12.8 0
v -0.64 -12.8 0
v -1.28 -13.44 0
v -1.92 -13.44 0
v -1.92 -12.8 0
v -1.28 -12.8 0
v -1.92 -13.44 0
v -2.56 -13.44 0
v -2.56 -12.8 0
v -1.92 -12.8 0
v -2.56 -13.44 0
v -3.2 -13.44 0
v -3.2 -12.8 0
v -2.56 -12.8 0
v -3.2 -13.44 0
v -3.84 -13.44 0
v -3.84 -12.8 0
v -3.2 -12.8 0
v -3.84 -13.44 0
v -4.48 -13.44 0
v -4.48 -12.8 0
v -3.84 -12.8 0
v -4.48 -13.44 0
v -5.12 -13.44 0
v -5.12 -12.8 0
v -4.48 -12.8 0
v -5.12 -13.44 0
v -5.76 -13.44 0
v -5.76 -12.8 0
v -5.12 -12.8 0
v -5.76 -13.44 0
v -6.4 -13.44 0
v -6.4 -12.8 0
v -5.76 -12.8 0
v -8.96 -13.44 0
v -9.599999 -13.44 0
v -9.599999 -12.8 0
v -8.96 -12.8 0
v -9.599999 -13.44 0
v -10.24 -13.44 0
v -10.24 -12.8 0
v -9.599999 -12.8 0
v -10.24 -13.44 0
v -10.88 -13.44 0
v -10.88 -12.8 0
v -10.24 -12.8 0
v -10.88 -13.44 0
v -11.52 -13.44 0
v -11.52 -12.8 0
v -10.88 -12.8 0
v -11.52 -13.44 0
v -12.16 -13.44 0
v -12.16 -12.8 0
v -11.52 -12.8 0
v 0 -14.08 0
v -0.64 -14.08 0
v -0.64 -13.44 0
v 0 -13.44 0
v -0.64 -14.08 0
v -1.28 -14.08 0
v -1.28 -13.44 0
v -0.64 -13.44 0
v -1.28 -14.08 0
v -1.92 -14.08 0
v -1.92 -13.44 0
v -1.28 -13.44 0
v -1.92 -14.08 0
v -2.56 -14.08 0
v -2.56 -13.44 0
v -1.92 -13.44 0
v -2.56 -14.08 0
v -3.2 -14.08 0
v -3.2 -13.44 0
v -2.56 -13.44 0
v -3.2 -14.08 0
v -3.84 -14.08 0
v -3.84 -13.44 0
v -3.2 -13.44 0
v -3.84 -14.08 0
v -4.48 -14.08 0
v -4.48 -13.44 0
v -3.84 -13.44 0
v -4.48 -14.08 0
v -5.12 -14.08 0
v -5.12 -13.44 0
v -4.48 -13.44 0
v -5.12 -14.08 0
v -5.76 -14.08 0
v -5.76 -13.44 0
v -5.12 -13.44 0
v -5.76 -14.08 0
v -6.4 -14.08 0
v -6.4 -13.44 0
v -5.76 -13.44 0
v -8.96 -14.08 0
v -9.599999 -14.08 0
v -9.599999 -13.44 0
v -8.96 -13.44 0
v -9.599999 -14.08 0
v -10.24 -14.08 0
v -10.24 -13.44 0
v -9.599999 -13.44 0
v -10.24 -14.08 0
v -10.88 -14.08 0
v -10.88 -13.44 0
v -10.24 -13.44 0
v -10.88 -14.08 0
v -11.52 -14.08 0
v -11.52 -13.44 0
v -10.88 -13.44 0
v -11.52 -14.08 0
v -12.16 -14.08 0
v -12.16 -13.44 0
v -11.52 -13.44 0
v 0 -14.72 0
v -0.64 -14.72 0
v -0.64 -14.08 0
v 0 -14.08 0
v -0.64 -14.72 0
v -1.28 -14.72 0
v -1.28 -14.08 0
v -0.64 -14.08 0
v -1.28 -14.72 0
v -1.92 -14.72 0
v -1.92 -14.08 0
v -1.28 -14.08 0
v -1.92 -14.72 0
v -2.56 -14.72 0
v -2.56 -14.08 0
v -1.92 -14.08 0
v -2.56 -14.72 0
v -3.2 -14.72 0
v -3.2 -14.08 0
v -2.56 -14.08 0
v -3.2 -14.72 0
v -3.84 -14.72 0
v -3.84 -14.08 0
v -3.2 -14.08 0
v -3.84 -14.72 0
v -4.48 -14.72 0
v -4.48 -14.08 0
v -3.84 -14.08 0
v -4.48 -14.72 0
v -5.12 -14.72 0
v -5.12 -14.08 0
v -4.48 -14.08 0
v -5.12 -14.72 0
v -5.76 -14.72 0
v -5.76 -14.08 0
v -5.12 -14.08 0
v -5.76 -14.72 0
v -6.4 -14.72 0
v -6.4 -14.08 0
v -5.76 -14.08 0
v -8.96 -14.72 0
v -9.599999 -14.72 0
v -9.599999 -14.08 0
v -8.96 -14.08 0
v -9.599999 -14.72 0
v -10.24 -14.72 0
v -10.24 -14.08 0
v -9.599999 -14.08 0
v -10.24 -14.72 0
v -10.88 -14.72 0
v -10.88 -14.08 0
v -10.24 -14.08 0
v -10.88 -14.72 0
v -11.52 -14.72 0
v -11.52 -14.08 0
v -10.88 -14.08 0
v -11.52 -14.72 0
v -12.16 -14.72 0
v -12.16 -14.08 0
v -11.52 -14.08 0
v 0 -15.36 0
v -0.64 -15.36 0
v -0.64 -14.72 0
v 0 -14.72 0
v -0.64 -15.36 0
v -1.28 -15.36 0
v -1.28 -14.72 0
v -0.64 -14.72 0
v -1.28 -15.36 0
v -1.92 -15.36 0
v -1.92 -14.72 0
v -1.28 -14.72 0
v -1.92 -15.36 0
v -2.56 -15.36 0
v -2.56 -14.72 0
v -1.92 -14.72 0
v -2.56 -15.36 0
v -3.2 -15.36 0
v -3.2 -14.72 0
v -2.56 -14.72 0
v -3.2 -15.36 0
v -3.84 -15.36 0
v -3.84 -14.72 0
v -3.2 -14.72 0
v -3.84 -15.36 0
v -4.48 -15.36 0
v -4.48 -14.72 0
v -3.84 -14.72 0
v -4.48 -15.36 0
v -5.12 -15.36 0
v -5.12 -14.72 0
v -4.48 -14.72 0
v -5.12 -15.36 0
v -5.76 -15.36 0
v -5.76 -14.72 0
v -5.12 -14.72 0
v -5.76 -15.36 0
v -6.4 -15.36 0
v -6.4 -14.72 0
v -5.76 -14.72 0
v -8.96 -15.36 0
v -9.599999 -15.36 0
v -9.599999 -14.72 0
v -8.96 -14.72 0
v -9.599999 -15.36 0
v -10.24 -15.36 0
v -10.24 -14.72 0
v -9.599999 -14.72 0
v -10.24 -15.36 0
v -10.88 -15.36 0
v -10.88 -14.72 0
v -10.24 -14.72 0
v -10.88 -15.36 0
v -11.52 -15.36 0
v -11.52 -14.72 0
v -10.88 -14.72 0
v -11.52 -15.36 0
v -12.16 -15.36 0
v -12.16 -14.72 0
v -11.52 -14.72 0

# Texture cooridinates (Count = 10)
vt 0.25 0.875
vt 0.375 0.875
vt 0.375 1
vt 0.25 1
vt 0.5 0.875
vt 0.5 1
vt 0 0.875
vt 0.125 0.875
vt 0.125 1
vt 0 1

# Normal
vn 0 0 -1

# Mesh description
g TestMap_mesh_0001

# Faces
f 1/1/1 2/2/1 3/3/1 4/4/1
f 5/1/1 6/2/1 7/3/1 8/4/1
f 9/1/1 10/2/1 11/3/1 12/4/1
f 13/1/1 14/2/1 15/3/1 16/4/1
f 17/1/1 18/2/1 19/3/1 20/4/1
f 21/1/1 22/2/1 23/3/1 24/4/1
f 25/1/1 26/2/1 27/3/1 28/4/1
f 29/1/1 30/2/1 31/3/1 32/4/1
f 33/1/1 34/2/1 35/3/1 36/4/1
f 37/1/1 38/2/1 39/3/1 40/4/1
f 41/1/1 42/2/1 43/3/1 44/4/1
f 45/1/1 46/2/1 47/3/1 48/4/1
f 49/1/1 50/2/1 51/3/1 52/4/1
f 53/1/1 54/2/1 55/3/1 56/4/1
f 57/1/1 58/2/1 59/3/1 60/4/1
f 61/2/1 62/5/1 63/6/1 64/3/1
f 65/1/1 66/2/1 67/3/1 68/4/1
f 69/1/1 70/2/1 71/3/1 72/4/1
f 73/1/1 74/2/1 75/3/1 76/4/1
f 77/1/1 78/2/1 79/3/1 80/4/1
f 81/1/1 82/2/1 83/3/1 84/4/1
f 85/7/1 86/8/1 87/9/1 88/10/1
f 89/7/1 90/8/1 91/9/1 92/10/1
f 93/7/1 94/8/1 95/9/1 96/10/1
f 97/7/1 98/8/1 99/9/1 100/10/1
f 101/7/1 102/8/1 103/9/1 104/10/1
f 105/7/1 106/8/1 107/9/1 108/10/1
f 109/7/1 110/8/1 111/9/1 112/10/1
f 113/7/1 114/8/1 115/9/1 116/10/1
f 117/7/1 118/8/1 119/9/1 120/10/1
f 121/7/1 122/8/1 123/9/1 124/10/1
f 125/1/1 126/2/1 127/3/1 128/4/1
f 129/1/1 130/2/1 131/3/1 132/4/1
f 133/1/1 134/2/1 135/3/1 136/4/1
f 137/1/1 138/2/1 139/3/1 140/4/1
f 141/1/1 142/2/1 143/3/1 144/4/1
f 145/8/1 146/1/1 147/4/1 148/9/1
f 149/8/1 150/1/1 151/4/1 152/9/1
f 153/8/1 154/1/1 155/4/1 156/9/1
f 157/8/1 158/1/1 159/4/1 160/9/1
f 161/8/1 162/1/1 163/4/1 164/9/1
f 165/8/1 166/1/1 167/4/1 168/9/1
f 169/8/1 170/1/1 171/4/1 172/9/1
f 173/8/1 174/1/1 175/4/1 176/9/1
f 177/8/1 178/1/1 179/4/1 180/9/1
f 181/8/1 182/1/1 183/4/1 184/9/1
f 185/1/1 186/2/1 187/3/1 188/4/1
f 189/1/1 190/2/1 191/3/1 192/4/1
f 193/1/1 194/2/1 195/3/1 196/4/1
f 197/1/1 198/2/1 199/3/1 200/4/1
f 201/1/1 202/2/1 203/3/1 204/4/1
f 205/8/1 206/1/1 207/4/1 208/9/1
f 209/8/1 210/1/1 211/4/1 212/9/1
f 213/8/1 214/1/1 215/4/1 216/9/1
f 217/8/1 218/1/1 219/4/1 220/9/1
f 221/8/1 222/1/1 223/4/1 224/9/1
f 225/8/1 226/1/1 227/4/1 228/9/1
f 229/8/1 230/1/1 231/4/1 232/9/1
f 233/8/1 234/1/1 235/4/1 236/9/1
f 237/8/1 238/1/1 239/4/1 240/9/1
f 241/8/1 242/1/1 243/4/1 244/9/1
f 245/1/1 246/2/1 247/3/1 248/4/1
f 249/1/1 250/2/1 251/3/1 252/4/1
f 253/1/1 254/2/1 255/3/1 256/4/1
f 257/1/1 258/2/1 259/3/1 260/4/1
f 261/1/1 262/2/1 263/3/1 264/4/1
f 265/8/1 266/1/1 267/4/1 268/9/1
f 269/8/1 270/1/1 271/4/1 272/9/1
f 273/8/1 274/1/1 275/4/1 276/9/1
f 277/8/1 278/1/1 279/4/1 280/9/1
f 281/8/1 282/1/1 283/4/1 284/9/1
f 285/8/1 286/1/1 287/4/1 288/9/1
f 289/8/1 290/1/1 291/4/1 292/9/1
f 293/8/1 294/1/1 295/4/1 296/9/1
f 297/8/1 298/1/1 299/4/1 300/9/1
f 301/8/1 302/1/1 303/4/1 304/9/1
f 305/1/1 306/2/1 307/3/1 308/4/1
f 309/1/1 310/2/1 311/3/1 312/4/1
f 313/1/1 314/2/1 315/3/1 316/4/1
f 317/1/1 318/2/1 319/3/1 320/4/1
f 321/1/1 322/2/1 323/3/1 324/4/1
f 325/8/1 326/1/1 327/4/1 328/9/1
f 329/8/1 330/1/1 331/4/1 332/9/1
f 333/8/1 334/1/1 335/4/1 336/9/1
f 337/8/1 338/1/1 339/4/1 340/9/1
f 341/8/1 342/1/1 343/4/1 344/9/1
f 345/8/1 346/1/1 347/4/1 348/9/1
f 349/8/1 350/1/1 351/4/1 352/9/1
f 353/8/1 354/1/1 355/4/1 356/9/1
f 357/8/1 358/1/1 359/4/1 360/9/1
f 361/8/1 362/1/1 363/4/1 364/9/1
f 365/1/1 366/2/1 367/3/1 368/4/1
f 369/1/1 370/2/1 371/3/1 372/4/1
f 373/1/1 374/2/1 375/3/1 376/4/1
f 377/1/1 378/2/1 379/3/1 380/4/1
f 381/1/1 382/2/1 383/3/1 384/4/1

