# Tiled2Unity generated file. Do not modify by hand.
# Wavefront file for 'TestMap_mesh_0001.obj'

# Vertices (Count = 380)
v -896 -1024 0
v -960 -1024 0
v -960 -960 0
v -896 -960 0
v -960 -1024 0
v -1024 -1024 0
v -1024 -960 0
v -960 -960 0
v -1024 -1024 0
v -1088 -1024 0
v -1088 -960 0
v -1024 -960 0
v -1088 -1024 0
v -1152 -1024 0
v -1152 -960 0
v -1088 -960 0
v -1152 -1024 0
v -1216 -1024 0
v -1216 -960 0
v -1152 -960 0
v -896 -1088 0
v -960 -1088 0
v -960 -1024 0
v -896 -1024 0
v -960 -1088 0
v -1024 -1088 0
v -1024 -1024 0
v -960 -1024 0
v -1024 -1088 0
v -1088 -1088 0
v -1088 -1024 0
v -1024 -1024 0
v -1088 -1088 0
v -1152 -1088 0
v -1152 -1024 0
v -1088 -1024 0
v -1152 -1088 0
v -1216 -1088 0
v -1216 -1024 0
v -1152 -1024 0
v -896 -1152 0
v -960 -1152 0
v -960 -1088 0
v -896 -1088 0
v -960 -1152 0
v -1024 -1152 0
v -1024 -1088 0
v -960 -1088 0
v -1024 -1152 0
v -1088 -1152 0
v -1088 -1088 0
v -1024 -1088 0
v -1088 -1152 0
v -1152 -1152 0
v -1152 -1088 0
v -1088 -1088 0
v -1152 -1152 0
v -1216 -1152 0
v -1216 -1088 0
v -1152 -1088 0
v -896 -1216 0
v -960 -1216 0
v -960 -1152 0
v -896 -1152 0
v -960 -1216 0
v -1024 -1216 0
v -1024 -1152 0
v -960 -1152 0
v -1024 -1216 0
v -1088 -1216 0
v -1088 -1152 0
v -1024 -1152 0
v -1088 -1216 0
v -1152 -1216 0
v -1152 -1152 0
v -1088 -1152 0
v -1152 -1216 0
v -1216 -1216 0
v -1216 -1152 0
v -1152 -1152 0
v 0 -1280 0
v -64 -1280 0
v -64 -1216 0
v 0 -1216 0
v -64 -1280 0
v -128 -1280 0
v -128 -1216 0
v -64 -1216 0
v -128 -1280 0
v -192 -1280 0
v -192 -1216 0
v -128 -1216 0
v -192 -1280 0
v -256 -1280 0
v -256 -1216 0
v -192 -1216 0
v -256 -1280 0
v -320 -1280 0
v -320 -1216 0
v -256 -1216 0
v -320 -1280 0
v -384 -1280 0
v -384 -1216 0
v -320 -1216 0
v -384 -1280 0
v -448 -1280 0
v -448 -1216 0
v -384 -1216 0
v -448 -1280 0
v -512 -1280 0
v -512 -1216 0
v -448 -1216 0
v -512 -1280 0
v -576 -1280 0
v -576 -1216 0
v -512 -1216 0
v -576 -1280 0
v -640 -1280 0
v -640 -1216 0
v -576 -1216 0
v -896 -1280 0
v -960 -1280 0
v -960 -1216 0
v -896 -1216 0
v -960 -1280 0
v -1024 -1280 0
v -1024 -1216 0
v -960 -1216 0
v -1024 -1280 0
v -1088 -1280 0
v -1088 -1216 0
v -1024 -1216 0
v -1088 -1280 0
v -1152 -1280 0
v -1152 -1216 0
v -1088 -1216 0
v -1152 -1280 0
v -1216 -1280 0
v -1216 -1216 0
v -1152 -1216 0
v 0 -1344 0
v -64 -1344 0
v -64 -1280 0
v 0 -1280 0
v -64 -1344 0
v -128 -1344 0
v -128 -1280 0
v -64 -1280 0
v -128 -1344 0
v -192 -1344 0
v -192 -1280 0
v -128 -1280 0
v -192 -1344 0
v -256 -1344 0
v -256 -1280 0
v -192 -1280 0
v -256 -1344 0
v -320 -1344 0
v -320 -1280 0
v -256 -1280 0
v -320 -1344 0
v -384 -1344 0
v -384 -1280 0
v -320 -1280 0
v -384 -1344 0
v -448 -1344 0
v -448 -1280 0
v -384 -1280 0
v -448 -1344 0
v -512 -1344 0
v -512 -1280 0
v -448 -1280 0
v -512 -1344 0
v -576 -1344 0
v -576 -1280 0
v -512 -1280 0
v -576 -1344 0
v -640 -1344 0
v -640 -1280 0
v -576 -1280 0
v -896 -1344 0
v -960 -1344 0
v -960 -1280 0
v -896 -1280 0
v -960 -1344 0
v -1024 -1344 0
v -1024 -1280 0
v -960 -1280 0
v -1024 -1344 0
v -1088 -1344 0
v -1088 -1280 0
v -1024 -1280 0
v -1088 -1344 0
v -1152 -1344 0
v -1152 -1280 0
v -1088 -1280 0
v -1152 -1344 0
v -1216 -1344 0
v -1216 -1280 0
v -1152 -1280 0
v 0 -1408 0
v -64 -1408 0
v -64 -1344 0
v 0 -1344 0
v -64 -1408 0
v -128 -1408 0
v -128 -1344 0
v -64 -1344 0
v -128 -1408 0
v -192 -1408 0
v -192 -1344 0
v -128 -1344 0
v -192 -1408 0
v -256 -1408 0
v -256 -1344 0
v -192 -1344 0
v -256 -1408 0
v -320 -1408 0
v -320 -1344 0
v -256 -1344 0
v -320 -1408 0
v -384 -1408 0
v -384 -1344 0
v -320 -1344 0
v -384 -1408 0
v -448 -1408 0
v -448 -1344 0
v -384 -1344 0
v -448 -1408 0
v -512 -1408 0
v -512 -1344 0
v -448 -1344 0
v -512 -1408 0
v -576 -1408 0
v -576 -1344 0
v -512 -1344 0
v -576 -1408 0
v -640 -1408 0
v -640 -1344 0
v -576 -1344 0
v -896 -1408 0
v -960 -1408 0
v -960 -1344 0
v -896 -1344 0
v -960 -1408 0
v -1024 -1408 0
v -1024 -1344 0
v -960 -1344 0
v -1024 -1408 0
v -1088 -1408 0
v -1088 -1344 0
v -1024 -1344 0
v -1088 -1408 0
v -1152 -1408 0
v -1152 -1344 0
v -1088 -1344 0
v -1152 -1408 0
v -1216 -1408 0
v -1216 -1344 0
v -1152 -1344 0
v 0 -1472 0
v -64 -1472 0
v -64 -1408 0
v 0 -1408 0
v -64 -1472 0
v -128 -1472 0
v -128 -1408 0
v -64 -1408 0
v -128 -1472 0
v -192 -1472 0
v -192 -1408 0
v -128 -1408 0
v -192 -1472 0
v -256 -1472 0
v -256 -1408 0
v -192 -1408 0
v -256 -1472 0
v -320 -1472 0
v -320 -1408 0
v -256 -1408 0
v -320 -1472 0
v -384 -1472 0
v -384 -1408 0
v -320 -1408 0
v -384 -1472 0
v -448 -1472 0
v -448 -1408 0
v -384 -1408 0
v -448 -1472 0
v -512 -1472 0
v -512 -1408 0
v -448 -1408 0
v -512 -1472 0
v -576 -1472 0
v -576 -1408 0
v -512 -1408 0
v -576 -1472 0
v -640 -1472 0
v -640 -1408 0
v -576 -1408 0
v -896 -1472 0
v -960 -1472 0
v -960 -1408 0
v -896 -1408 0
v -960 -1472 0
v -1024 -1472 0
v -1024 -1408 0
v -960 -1408 0
v -1024 -1472 0
v -1088 -1472 0
v -1088 -1408 0
v -1024 -1408 0
v -1088 -1472 0
v -1152 -1472 0
v -1152 -1408 0
v -1088 -1408 0
v -1152 -1472 0
v -1216 -1472 0
v -1216 -1408 0
v -1152 -1408 0
v 0 -1536 0
v -64 -1536 0
v -64 -1472 0
v 0 -1472 0
v -64 -1536 0
v -128 -1536 0
v -128 -1472 0
v -64 -1472 0
v -128 -1536 0
v -192 -1536 0
v -192 -1472 0
v -128 -1472 0
v -192 -1536 0
v -256 -1536 0
v -256 -1472 0
v -192 -1472 0
v -256 -1536 0
v -320 -1536 0
v -320 -1472 0
v -256 -1472 0
v -320 -1536 0
v -384 -1536 0
v -384 -1472 0
v -320 -1472 0
v -384 -1536 0
v -448 -1536 0
v -448 -1472 0
v -384 -1472 0
v -448 -1536 0
v -512 -1536 0
v -512 -1472 0
v -448 -1472 0
v -512 -1536 0
v -576 -1536 0
v -576 -1472 0
v -512 -1472 0
v -576 -1536 0
v -640 -1536 0
v -640 -1472 0
v -576 -1472 0
v -896 -1536 0
v -960 -1536 0
v -960 -1472 0
v -896 -1472 0
v -960 -1536 0
v -1024 -1536 0
v -1024 -1472 0
v -960 -1472 0
v -1024 -1536 0
v -1088 -1536 0
v -1088 -1472 0
v -1024 -1472 0
v -1088 -1536 0
v -1152 -1536 0
v -1152 -1472 0
v -1088 -1472 0
v -1152 -1536 0
v -1216 -1536 0
v -1216 -1472 0
v -1152 -1472 0

# Texture cooridinates (Count = 8)
vt 0.25 0.875
vt 0.375 0.875
vt 0.375 1
vt 0.25 1
vt 0 0.875
vt 0.125 0.875
vt 0.125 1
vt 0 1

# Normal
vn 0 0 -1

# Mesh description
g TestMap_mesh_0001

# Faces
f 1/1/1 2/2/1 3/3/1 4/4/1
f 5/1/1 6/2/1 7/3/1 8/4/1
f 9/1/1 10/2/1 11/3/1 12/4/1
f 13/1/1 14/2/1 15/3/1 16/4/1
f 17/1/1 18/2/1 19/3/1 20/4/1
f 21/1/1 22/2/1 23/3/1 24/4/1
f 25/1/1 26/2/1 27/3/1 28/4/1
f 29/1/1 30/2/1 31/3/1 32/4/1
f 33/1/1 34/2/1 35/3/1 36/4/1
f 37/1/1 38/2/1 39/3/1 40/4/1
f 41/1/1 42/2/1 43/3/1 44/4/1
f 45/1/1 46/2/1 47/3/1 48/4/1
f 49/1/1 50/2/1 51/3/1 52/4/1
f 53/1/1 54/2/1 55/3/1 56/4/1
f 57/1/1 58/2/1 59/3/1 60/4/1
f 61/1/1 62/2/1 63/3/1 64/4/1
f 65/1/1 66/2/1 67/3/1 68/4/1
f 69/1/1 70/2/1 71/3/1 72/4/1
f 73/1/1 74/2/1 75/3/1 76/4/1
f 77/1/1 78/2/1 79/3/1 80/4/1
f 81/5/1 82/6/1 83/7/1 84/8/1
f 85/5/1 86/6/1 87/7/1 88/8/1
f 89/5/1 90/6/1 91/7/1 92/8/1
f 93/5/1 94/6/1 95/7/1 96/8/1
f 97/5/1 98/6/1 99/7/1 100/8/1
f 101/5/1 102/6/1 103/7/1 104/8/1
f 105/5/1 106/6/1 107/7/1 108/8/1
f 109/5/1 110/6/1 111/7/1 112/8/1
f 113/5/1 114/6/1 115/7/1 116/8/1
f 117/5/1 118/6/1 119/7/1 120/8/1
f 121/1/1 122/2/1 123/3/1 124/4/1
f 125/1/1 126/2/1 127/3/1 128/4/1
f 129/1/1 130/2/1 131/3/1 132/4/1
f 133/1/1 134/2/1 135/3/1 136/4/1
f 137/1/1 138/2/1 139/3/1 140/4/1
f 141/6/1 142/1/1 143/4/1 144/7/1
f 145/6/1 146/1/1 147/4/1 148/7/1
f 149/6/1 150/1/1 151/4/1 152/7/1
f 153/6/1 154/1/1 155/4/1 156/7/1
f 157/6/1 158/1/1 159/4/1 160/7/1
f 161/6/1 162/1/1 163/4/1 164/7/1
f 165/6/1 166/1/1 167/4/1 168/7/1
f 169/6/1 170/1/1 171/4/1 172/7/1
f 173/6/1 174/1/1 175/4/1 176/7/1
f 177/6/1 178/1/1 179/4/1 180/7/1
f 181/1/1 182/2/1 183/3/1 184/4/1
f 185/1/1 186/2/1 187/3/1 188/4/1
f 189/1/1 190/2/1 191/3/1 192/4/1
f 193/1/1 194/2/1 195/3/1 196/4/1
f 197/1/1 198/2/1 199/3/1 200/4/1
f 201/6/1 202/1/1 203/4/1 204/7/1
f 205/6/1 206/1/1 207/4/1 208/7/1
f 209/6/1 210/1/1 211/4/1 212/7/1
f 213/6/1 214/1/1 215/4/1 216/7/1
f 217/6/1 218/1/1 219/4/1 220/7/1
f 221/6/1 222/1/1 223/4/1 224/7/1
f 225/6/1 226/1/1 227/4/1 228/7/1
f 229/6/1 230/1/1 231/4/1 232/7/1
f 233/6/1 234/1/1 235/4/1 236/7/1
f 237/6/1 238/1/1 239/4/1 240/7/1
f 241/1/1 242/2/1 243/3/1 244/4/1
f 245/1/1 246/2/1 247/3/1 248/4/1
f 249/1/1 250/2/1 251/3/1 252/4/1
f 253/1/1 254/2/1 255/3/1 256/4/1
f 257/1/1 258/2/1 259/3/1 260/4/1
f 261/6/1 262/1/1 263/4/1 264/7/1
f 265/6/1 266/1/1 267/4/1 268/7/1
f 269/6/1 270/1/1 271/4/1 272/7/1
f 273/6/1 274/1/1 275/4/1 276/7/1
f 277/6/1 278/1/1 279/4/1 280/7/1
f 281/6/1 282/1/1 283/4/1 284/7/1
f 285/6/1 286/1/1 287/4/1 288/7/1
f 289/6/1 290/1/1 291/4/1 292/7/1
f 293/6/1 294/1/1 295/4/1 296/7/1
f 297/6/1 298/1/1 299/4/1 300/7/1
f 301/1/1 302/2/1 303/3/1 304/4/1
f 305/1/1 306/2/1 307/3/1 308/4/1
f 309/1/1 310/2/1 311/3/1 312/4/1
f 313/1/1 314/2/1 315/3/1 316/4/1
f 317/1/1 318/2/1 319/3/1 320/4/1
f 321/6/1 322/1/1 323/4/1 324/7/1
f 325/6/1 326/1/1 327/4/1 328/7/1
f 329/6/1 330/1/1 331/4/1 332/7/1
f 333/6/1 334/1/1 335/4/1 336/7/1
f 337/6/1 338/1/1 339/4/1 340/7/1
f 341/6/1 342/1/1 343/4/1 344/7/1
f 345/6/1 346/1/1 347/4/1 348/7/1
f 349/6/1 350/1/1 351/4/1 352/7/1
f 353/6/1 354/1/1 355/4/1 356/7/1
f 357/6/1 358/1/1 359/4/1 360/7/1
f 361/1/1 362/2/1 363/3/1 364/4/1
f 365/1/1 366/2/1 367/3/1 368/4/1
f 369/1/1 370/2/1 371/3/1 372/4/1
f 373/1/1 374/2/1 375/3/1 376/4/1
f 377/1/1 378/2/1 379/3/1 380/4/1

